<svg width="53" height="48" viewBox="0 0 53 48" fill="none" xmlns="http://www.w3.org/2000/svg">
<rect x="20" width="33" height="33" fill="#5699E8" fill-opacity="0.36"/>
<g clip-path="url(#clip0_602_452)">
<path d="M31.875 24.875H3.125V44.875H31.875V24.875ZM30.625 43.625H4.375V26.125H30.625V43.625Z" fill="black"/>
<path d="M8.125 42.375C9.50375 42.375 10.625 41.2537 10.625 39.875C10.625 39.2338 10.3756 38.6544 9.97688 38.2113L13.5662 32.2294C13.8212 32.3169 14.0906 32.375 14.375 32.375C14.6681 32.375 14.9456 32.315 15.2069 32.2219L19.125 36.6994C18.8919 37.0794 18.75 37.5219 18.75 38C18.75 39.3787 19.8713 40.5 21.25 40.5C22.6287 40.5 23.75 39.3787 23.75 38C23.75 37.5044 23.6006 37.045 23.3512 36.6562L26.5844 32.3456C26.6812 32.3569 26.7756 32.375 26.875 32.375C28.2537 32.375 29.375 31.2538 29.375 29.875C29.375 28.4962 28.2537 27.375 26.875 27.375C25.4963 27.375 24.375 28.4962 24.375 29.875C24.375 30.6913 24.7738 31.4106 25.3806 31.8675L22.4256 35.8075C22.0737 35.6175 21.6775 35.5 21.25 35.5C20.8038 35.5 20.3906 35.6269 20.0281 35.8325L16.2487 31.5131C16.6337 31.0731 16.875 30.5044 16.875 29.875C16.875 28.4962 15.7537 27.375 14.375 27.375C12.9963 27.375 11.875 28.4962 11.875 29.875C11.875 30.5163 12.1244 31.0956 12.5231 31.5387L8.93375 37.5206C8.67875 37.4331 8.40937 37.375 8.125 37.375C6.74625 37.375 5.625 38.4963 5.625 39.875C5.625 41.2537 6.74625 42.375 8.125 42.375ZM26.875 28.625C27.5644 28.625 28.125 29.1856 28.125 29.875C28.125 30.5644 27.5644 31.125 26.875 31.125C26.1856 31.125 25.625 30.5644 25.625 29.875C25.625 29.1856 26.1856 28.625 26.875 28.625ZM22.5 38C22.5 38.6894 21.9394 39.25 21.25 39.25C20.5606 39.25 20 38.6894 20 38C20 37.3106 20.5606 36.75 21.25 36.75C21.9394 36.75 22.5 37.3106 22.5 38ZM14.375 28.625C15.0644 28.625 15.625 29.1856 15.625 29.875C15.625 30.5644 15.0644 31.125 14.375 31.125C13.6856 31.125 13.125 30.5644 13.125 29.875C13.125 29.1856 13.6856 28.625 14.375 28.625ZM8.125 38.625C8.81437 38.625 9.375 39.1856 9.375 39.875C9.375 40.5644 8.81437 41.125 8.125 41.125C7.43562 41.125 6.875 40.5644 6.875 39.875C6.875 39.1856 7.43562 38.625 8.125 38.625Z" fill="black"/>
<path d="M30.8838 8.625H11.875V22.375H0.625V47.375H34.375H39.375V17.1163L30.8838 8.625ZM31.25 22.375V18H35.625V31.125H34.375V22.375H31.25ZM25 22.375H23.75V16.75H25V22.375ZM22.5 15.5V22.375H21.25V16.75H17.5V22.375H15.625V12.375H30V14.25H27.5V22.375H26.25V15.5H22.5ZM20 22.375H18.75V18H20V22.375ZM28.75 15.5H30V18V22.375H28.75V15.5ZM31.25 16.75V14.25V10.7587L37.2412 16.75H31.25ZM13.125 9.875H30V11.125H14.375V22.375H13.125V9.875ZM33.125 46.125H1.875V23.625H33.125V46.125ZM38.125 46.125H34.375V32.375H36.875V18H38.125V46.125Z" fill="black"/>
<path d="M3.125 19.875H1.875V21.125H3.125V19.875Z" fill="black"/>
<path d="M3.125 17.375H1.875V18.625H3.125V17.375Z" fill="black"/>
<path d="M3.125 14.875H1.875V16.125H3.125V14.875Z" fill="black"/>
<path d="M3.125 12.375H1.875V13.625H3.125V12.375Z" fill="black"/>
<path d="M5.625 12.375H4.375V13.625H5.625V12.375Z" fill="black"/>
<path d="M8.125 12.375H6.875V13.625H8.125V12.375Z" fill="black"/>
<path d="M10.625 12.375H9.375V13.625H10.625V12.375Z" fill="black"/>
<path d="M29.375 41.125H28.125V42.375H29.375V41.125Z" fill="black"/>
<path d="M26.875 41.125H25.625V42.375H26.875V41.125Z" fill="black"/>
<path d="M29.375 38.625H28.125V39.875H29.375V38.625Z" fill="black"/>
</g>
<defs>
<clipPath id="clip0_602_452">
<rect width="40" height="40" fill="white" transform="translate(0 8)"/>
</clipPath>
</defs>
</svg>
