<svg width="53" height="48" viewBox="0 0 53 48" fill="none" xmlns="http://www.w3.org/2000/svg">
<rect x="20" width="33" height="33" fill="#5699E8" fill-opacity="0.36"/>
<g clip-path="url(#clip0_602_453)">
<path d="M34.375 24.8694V8.625H0.625V35.5H4.375V43.625C4.375 45.6931 6.05688 47.375 8.125 47.375C10.1931 47.375 11.875 45.6931 11.875 43.625V41.75V40.5V35.5H24.2388L12.9156 47.375H39.375V19.6262L34.375 24.8694ZM6.1275 21.75L8.125 18.5544L10.1225 21.75H6.1275ZM8.125 46.125C6.96375 46.125 5.99312 45.3256 5.71375 44.25H10.5363C10.2569 45.3256 9.28625 46.125 8.125 46.125ZM10.625 43H5.625V41.75H10.625V43ZM8.75 40.5V39.25H7.5V40.5H5.625V23H7.5V38H8.75V23H10.625V40.5H8.75ZM11.875 34.25V22.1956L8.125 16.1956L4.375 22.1956V34.25H1.875V14.875H30.625V13.625H1.875V9.875H33.125V13.625H31.875V14.875H33.125V26.125H33.1781L25.4306 34.25H11.875ZM38.125 46.125H15.8344L38.125 22.7487V46.125Z" fill="black"/>
<path d="M35.625 43.6254V29.5566L22.2969 43.6254H35.625ZM34.375 42.3754H25.2031L34.375 32.6941V42.3754Z" fill="black"/>
<path d="M4.375 11.125H3.125V12.375H4.375V11.125Z" fill="black"/>
<path d="M6.875 11.125H5.625V12.375H6.875V11.125Z" fill="black"/>
<path d="M9.375 11.125H8.125V12.375H9.375V11.125Z" fill="black"/>
<path d="M21.25 16.125C16.77 16.125 13.125 19.77 13.125 24.25C13.125 28.73 16.77 32.375 21.25 32.375C25.73 32.375 29.375 28.73 29.375 24.25C29.375 19.77 25.73 16.125 21.25 16.125ZM14.375 24.25C14.375 20.67 17.1262 17.7237 20.625 17.4069V25.1588L25.6337 29.5413C24.4425 30.5294 22.915 31.125 21.25 31.125C17.4594 31.125 14.375 28.0406 14.375 24.25ZM26.5206 28.6562L21.875 24.5912V17.4069C25.3737 17.7237 28.125 20.67 28.125 24.25C28.125 25.9256 27.5206 27.4619 26.5206 28.6562Z" fill="black"/>
</g>
<defs>
<clipPath id="clip0_602_453">
<rect width="40" height="40" fill="white" transform="translate(0 8)"/>
</clipPath>
</defs>
</svg>
