<svg width="40" height="40" viewBox="0 0 40 40" fill="none" xmlns="http://www.w3.org/2000/svg">
<path d="M21.125 14.4587C20.8194 14.1531 20.4372 14.0075 19.9783 14.022C19.5205 14.0353 19.1388 14.1948 18.8333 14.5003C18.5277 14.8059 18.375 15.1948 18.375 15.667C18.375 16.1392 18.5277 16.5281 18.8333 16.8337L20.3333 18.3337H14.9583C14.4861 18.3337 14.0972 18.4937 13.7916 18.8137C13.4861 19.1325 13.3333 19.5281 13.3333 20.0003C13.3333 20.4725 13.4927 20.8687 13.8116 21.1887C14.1316 21.5075 14.5277 21.667 15 21.667H20.3333L18.7916 23.2087C18.4861 23.5142 18.34 23.8964 18.3533 24.3553C18.3677 24.8131 18.5277 25.1948 18.8333 25.5003C19.1388 25.8059 19.5277 25.9587 20 25.9587C20.4722 25.9587 20.8611 25.8059 21.1666 25.5003L25.5 21.167C25.8333 20.8337 26 20.4448 26 20.0003C26 19.5559 25.8333 19.167 25.5 18.8337L21.125 14.4587ZM20 3.33366C22.3055 3.33366 24.4722 3.77144 26.5 4.64699C28.5277 5.52144 30.2916 6.70866 31.7916 8.20866C33.2916 9.70866 34.4788 11.4725 35.3533 13.5003C36.2288 15.5281 36.6666 17.6948 36.6666 20.0003C36.6666 22.3059 36.2288 24.4725 35.3533 26.5003C34.4788 28.5281 33.2916 30.292 31.7916 31.792C30.2916 33.292 28.5277 34.4798 26.5 35.3553C24.4722 36.2298 22.3055 36.667 20 36.667C17.6944 36.667 15.5277 36.2298 13.5 35.3553C11.4722 34.4798 9.70829 33.292 8.20829 31.792C6.70829 30.292 5.52107 28.5281 4.64663 26.5003C3.77107 24.4725 3.33329 22.3059 3.33329 20.0003C3.33329 17.6948 3.77107 15.5281 4.64663 13.5003C5.52107 11.4725 6.70829 9.70866 8.20829 8.20866C9.70829 6.70866 11.4722 5.52144 13.5 4.64699C15.5277 3.77144 17.6944 3.33366 20 3.33366ZM20 6.66699C16.3055 6.66699 13.1594 7.96533 10.5616 10.562C7.96496 13.1598 6.66663 16.3059 6.66663 20.0003C6.66663 23.6948 7.96496 26.8409 10.5616 29.4387C13.1594 32.0353 16.3055 33.3337 20 33.3337C23.6944 33.3337 26.84 32.0353 29.4366 29.4387C32.0344 26.8409 33.3333 23.6948 33.3333 20.0003C33.3333 16.3059 32.0344 13.1598 29.4366 10.562C26.84 7.96533 23.6944 6.66699 20 6.66699Z" fill="#5699E8"/>
</svg>
