<svg width="40" height="40" viewBox="0 0 40 40" fill="none" xmlns="http://www.w3.org/2000/svg">
<g opacity="0.2">
<path d="M18.875 25.5413C19.1806 25.8469 19.5628 25.9925 20.0217 25.978C20.4795 25.9647 20.8612 25.8052 21.1667 25.4997C21.4723 25.1941 21.625 24.8052 21.625 24.333C21.625 23.8608 21.4723 23.4719 21.1667 23.1663L19.6667 21.6663L25.0417 21.6663C25.5139 21.6663 25.9028 21.5063 26.2084 21.1863C26.5139 20.8675 26.6667 20.4719 26.6667 19.9997C26.6667 19.5275 26.5073 19.1313 26.1884 18.8113C25.8684 18.4925 25.4723 18.333 25 18.333L19.6667 18.333L21.2084 16.7913C21.5139 16.4858 21.66 16.1036 21.6467 15.6447C21.6323 15.1869 21.4723 14.8052 21.1667 14.4997C20.8612 14.1941 20.4723 14.0413 20 14.0413C19.5278 14.0413 19.1389 14.1941 18.8334 14.4997L14.5 18.833C14.1667 19.1663 14 19.5552 14 19.9997C14 20.4441 14.1667 20.833 14.5 21.1663L18.875 25.5413ZM20 36.6663C17.6945 36.6663 15.5278 36.2286 13.5 35.353C11.4723 34.4786 9.70837 33.2913 8.20837 31.7913C6.70837 30.2913 5.52115 28.5275 4.64671 26.4997C3.77115 24.4719 3.33337 22.3052 3.33337 19.9997C3.33337 17.6941 3.77115 15.5275 4.64671 13.4997C5.52115 11.4719 6.70837 9.70801 8.20837 8.20801C9.70837 6.70801 11.4723 5.52023 13.5 4.64467C15.5278 3.77023 17.6945 3.33301 20 3.33301C22.3056 3.33301 24.4723 3.77023 26.5 4.64467C28.5278 5.52023 30.2917 6.70801 31.7917 8.20801C33.2917 9.70801 34.4789 11.4719 35.3534 13.4997C36.2289 15.5275 36.6667 17.6941 36.6667 19.9997C36.6667 22.3052 36.2289 24.4719 35.3534 26.4997C34.4789 28.5275 33.2917 30.2913 31.7917 31.7913C30.2917 33.2913 28.5278 34.4786 26.5 35.353C24.4723 36.2286 22.3056 36.6663 20 36.6663ZM20 33.333C23.6945 33.333 26.8406 32.0347 29.4384 29.438C32.035 26.8402 33.3334 23.6941 33.3334 19.9997C33.3334 16.3052 32.035 13.1591 29.4384 10.5613C26.8406 7.96467 23.6945 6.66634 20 6.66634C16.3056 6.66634 13.16 7.96467 10.5634 10.5613C7.9656 13.1591 6.66671 16.3052 6.66671 19.9997C6.66671 23.6941 7.9656 26.8402 10.5634 29.438C13.16 32.0347 16.3056 33.333 20 33.333Z" fill="black"/>
</g>
</svg>
